<?xml version="1.0" encoding="UTF-8"?>
<svg width="752pt" height="752pt" version="1.1" viewBox="0 0 752 752" xmlns="http://www.w3.org/2000/svg">
 <defs>
  <clipPath id="a">
   <path d="m139.21 139.21h473.58v473.58h-473.58z"/>
  </clipPath>
 </defs>
 <g clip-path="url(#a)">
  <path d="m375.98 139.21c-130.77 0-236.77 106.02-236.77 236.79 0 130.78 106 236.79 236.77 236.79 130.76 0.003907 236.81-106 236.81-236.79 0-130.77-106.05-236.79-236.81-236.79zm206.3 157.47c5.2344 13.617 9.1719 27.879 11.641 42.645l-254.61 254.61c-14.766-2.4688-29.023-6.3984-42.645-11.641zm-301.25 278.93c-11.996-5.7188-23.367-12.52-34.062-20.223l308.42-308.42c7.6992 10.684 14.504 22.059 20.215 34.062zm191.14-398.64c11.949 5.7891 23.262 12.641 33.895 20.391l-308.71 308.71c-7.75-10.629-14.602-21.949-20.387-33.895zm-301.94 279.63c-5.3086-13.535-9.3125-27.719-11.871-42.406l255.84-255.84c14.688 2.5625 28.867 6.5664 42.406 11.871zm224.17-300.79-238.58 238.59c-0.5-6.0703-0.82031-12.195-0.82031-18.402 0-13.129 1.2109-25.973 3.3984-38.477l179.14-179.13c12.496-2.1914 25.332-3.3984 38.453-3.3984 6.2109 0 12.34 0.32031 18.414 0.82031zm-86.523 9.9258-142.13 142.12c21.773-67.25 74.867-120.35 142.13-142.12zm-100.7 352.83 311.39-311.39c9.7891 8.2734 18.859 17.371 27.078 27.203l-311.27 311.27c-9.832-8.2188-18.934-17.289-27.203-27.078zm152.07 77.746 237.06-237.07c0.42187 5.5391 0.69922 11.109 0.69922 16.75 0 13.887-1.3438 27.453-3.793 40.633l-176.59 176.59c-13.18 2.4531-26.746 3.793-40.633 3.793-5.6328 0.003907-11.207-0.28125-16.738-0.69922zm87.578-10.969 138.52-138.51c-22.012 65.055-73.457 116.5-138.52 138.51z" fill="#0b459f"/>
 </g>
</svg>
