<?xml version="1.0" encoding="iso-8859-1"?>
<!-- Generator: Adobe Illustrator 18.0.0, SVG Export Plug-In . SVG Version: 6.00 Build 0)  -->
<!DOCTYPE svg PUBLIC "-//W3C//DTD SVG 1.1//EN" "http://www.w3.org/Graphics/SVG/1.1/DTD/svg11.dtd">
<svg version="1.1" id="Capa_1" xmlns="http://www.w3.org/2000/svg" xmlns:xlink="http://www.w3.org/1999/xlink" x="0px" y="0px"
	 viewBox="0 0 297.001 297.001" style="enable-background:new 0 0 297.001 297.001;" xml:space="preserve">
<path d="M286.184,92.872C255.511,16.952,168.79-19.857,92.872,10.816C16.953,41.489-19.857,128.208,10.816,204.129
	c23.334,57.755,79.093,92.876,137.869,92.872c18.486-0.002,37.279-3.477,55.444-10.816
	C280.048,255.512,316.858,168.792,286.184,92.872z M219.144,223.406l-28.4-30.05l16.013-49.283l39.5-22.995l30.313,35.832
	c-1.17,17.388-5.878,34.295-13.679,49.681L219.144,223.406z M77.857,223.406l-43.828-16.847c-1.637-3.233-3.157-6.555-4.539-9.975
	c-5.253-13.003-8.208-26.372-9.072-39.658l30.326-35.848l39.499,22.995l16.013,49.283L77.857,223.406z M96.03,31.367l42.4,16.094
	v48.481l-40.406,29.356l-39.377-22.924V56.848C69.23,46.446,81.781,37.742,96.03,31.367z M238.353,56.854v45.521l-39.378,22.924
	L158.57,95.942V47.46l42.324-16.065C214.687,37.563,227.404,46.15,238.353,56.854z M38.507,104.359l-15.754,18.622
	c2.927-14.308,8.265-28.028,15.754-40.533V104.359z M124.997,185.858L110.47,141.15l38.03-27.631l38.029,27.631l-14.526,44.708
	H124.997z M274.318,123.064l-15.824-18.705V82.33c3.424,5.698,6.45,11.732,9.018,18.087
	C270.524,107.873,272.775,115.451,274.318,123.064z M169.248,21.864L148.5,29.74l-20.822-7.903
	C141.646,19.538,155.676,19.618,169.248,21.864z M54.652,236.063l19.115,7.348l9.739,15.707
	C72.913,252.91,63.171,245.173,54.652,236.063z M115.494,272.487l-22.309-35.979l28.833-30.51h52.964l28.833,30.51l-22.353,36.049
	C159.312,278.46,136.618,278.137,115.494,272.487z M213.424,259.231l9.81-15.821l19.087-7.337
	C234.002,245.013,224.321,252.851,213.424,259.231z"/>
<g>
</g>
<g>
</g>
<g>
</g>
<g>
</g>
<g>
</g>
<g>
</g>
<g>
</g>
<g>
</g>
<g>
</g>
<g>
</g>
<g>
</g>
<g>
</g>
<g>
</g>
<g>
</g>
<g>
</g>
</svg>
