<?xml version="1.0" encoding="iso-8859-1"?>
<!-- Generator: Adobe Illustrator 19.0.0, SVG Export Plug-In . SVG Version: 6.00 Build 0)  -->
<svg version="1.1" id="Layer_1" xmlns="http://www.w3.org/2000/svg" xmlns:xlink="http://www.w3.org/1999/xlink" x="0px" y="0px"
	 viewBox="0 0 511.999 511.999" style="enable-background:new 0 0 511.999 511.999;" xml:space="preserve">
<circle style="fill:#F8E4C5;" cx="255.998" cy="255.988" r="247.815"/>
<g>
	<path style="fill:#272F37;" d="M186.301,197.483l-14.668,92.609c-0.912,5.76,1.989,11.454,7.185,14.102l83.544,42.567
		c5.197,2.648,11.507,1.649,15.631-2.476l66.301-66.301c4.124-4.124,5.124-10.435,2.476-15.632l-42.567-83.544
		c-2.648-5.197-8.34-8.097-14.102-7.185l-92.609,14.668C191.731,187.204,187.213,191.722,186.301,197.483z"/>
	<path style="fill:#272F37;" d="M155.245,29.522c-27.016,12.01-52.33,29.078-74.485,51.235
		c-22.155,22.154-39.222,47.467-51.234,74.481l98.869-15.659c5.76-0.912,10.279-5.43,11.191-11.191L155.245,29.522z"/>
	<path style="fill:#272F37;" d="M9.537,281.853c5.69,54.546,29.42,107.568,71.223,149.369c3.087,3.087,6.237,6.073,9.442,8.963
		l15.651-98.817c0.912-5.76-1.989-11.454-7.185-14.102L9.537,281.853z"/>
	<path style="fill:#272F37;" d="M281.864,9.535l45.411,89.125c2.648,5.197,8.34,8.097,14.102,7.185l98.808-15.65
		c-2.889-3.205-5.873-6.353-8.959-9.439C389.425,38.957,336.408,15.227,281.864,9.535z"/>
	<path style="fill:#272F37;" d="M204.416,498.394c59.116,12.52,121.914,3.256,175.57-27.788l-89.184-45.441
		c-5.197-2.648-11.507-1.649-15.632,2.476L204.416,498.394z"/>
	<path style="fill:#272F37;" d="M470.613,379.975c31.041-53.655,40.304-116.449,27.785-175.562l-70.749,70.749
		c-4.124,4.124-5.124,10.435-2.476,15.631L470.613,379.975z"/>
</g>
<path style="opacity:0.15;fill:#FFFFFF;enable-background:new    ;" d="M371.277,36.585c-11.939,15.43-19.062,34.775-19.062,55.794
	c0,50.411,40.866,91.277,91.277,91.277c16.584,0,32.122-4.445,45.525-12.176C467.883,113.218,425.52,65.146,371.277,36.585z"/>
<path d="M511.325,237.582c-4.023-56.995-26.691-110.312-65.057-152.841c-0.005-0.005-0.01-0.013-0.014-0.019
	c-0.014-0.015-0.028-0.031-0.043-0.046c-1.414-1.567-2.85-3.118-4.306-4.655c-0.084-0.088-0.165-0.18-0.248-0.268
	c-1.529-1.608-3.078-3.201-4.653-4.777c-1.38-1.38-2.777-2.739-4.185-4.085c-0.78-0.745-1.571-1.475-2.358-2.211
	c-0.567-0.527-1.13-1.059-1.701-1.581c-1.171-1.074-2.355-2.13-3.544-3.18c-0.097-0.085-0.193-0.172-0.29-0.257
	C378.191,22.501,318.825,0,255.992,0c-56.387,0-109.982,18.124-154.161,51.588c-0.207,0.157-0.413,0.315-0.619,0.472
	c-1.288,0.982-2.569,1.973-3.841,2.981c-0.424,0.336-0.845,0.677-1.266,1.014c-1.085,0.872-2.168,1.747-3.241,2.637
	c-0.597,0.496-1.189,1-1.782,1.5c-0.915,0.774-1.831,1.545-2.736,2.332c-0.749,0.651-1.488,1.314-2.231,1.973
	c-0.757,0.673-1.519,1.342-2.27,2.026c-0.926,0.843-1.84,1.703-2.756,2.562c-0.568,0.532-1.141,1.055-1.704,1.592
	c-1.482,1.414-2.952,2.846-4.404,4.299c-1.453,1.453-2.883,2.921-4.298,4.403c-0.538,0.564-1.061,1.139-1.594,1.706
	c-0.858,0.915-1.717,1.827-2.56,2.754c-0.682,0.75-1.349,1.509-2.022,2.265c-0.661,0.744-1.326,1.485-1.979,2.236
	c-0.787,0.904-1.557,1.819-2.33,2.733c-0.501,0.594-1.007,1.186-1.503,1.784c-0.89,1.072-1.765,2.155-2.636,3.24
	c-0.339,0.423-0.68,0.843-1.016,1.267c-1.007,1.271-1.997,2.551-2.978,3.838c-0.158,0.208-0.318,0.415-0.475,0.624
	c-33.464,44.18-51.588,97.774-51.588,154.161c0,62.832,22.5,122.198,63.661,168.93c0.087,0.099,0.174,0.197,0.262,0.296
	c1.049,1.188,2.105,2.37,3.178,3.54c0.521,0.57,1.052,1.132,1.578,1.697c0.736,0.789,1.467,1.581,2.213,2.361
	c1.346,1.409,2.706,2.806,4.085,4.187c1.575,1.575,3.168,3.123,4.775,4.651c0.064,0.061,0.131,0.12,0.195,0.181
	c1.564,1.483,3.143,2.943,4.737,4.383c0.014,0.013,0.028,0.026,0.042,0.039c0.009,0.008,0.017,0.014,0.026,0.022
	c42.127,38,94.838,60.596,151.225,64.928c0.056,0.004,0.11,0.01,0.166,0.014c1.433,0.109,2.871,0.195,4.309,0.281
	c5.244,0.321,10.487,0.501,15.721,0.501c10.505,0,20.974-0.654,31.357-1.935c0.113-0.014,0.227-0.028,0.34-0.041
	c1.948-0.243,3.895-0.501,5.836-0.789c0.496-0.073,0.989-0.156,1.485-0.232c1.118-0.172,2.236-0.35,3.352-0.537
	c1.089-0.181,2.175-0.369,3.259-0.564c0.069-0.012,0.137-0.025,0.206-0.038c50.859-9.182,97.675-33.543,134.993-70.862
	c37.311-37.311,61.671-84.116,70.855-134.964c0.01-0.057,0.021-0.112,0.032-0.169c0.267-1.485,0.518-2.974,0.76-4.466
	c0.114-0.698,0.228-1.397,0.337-2.098c0.154-0.999,0.299-2,0.44-3.002c0.177-1.239,0.344-2.479,0.503-3.72
	c0.072-0.566,0.142-1.132,0.209-1.699c0.209-1.729,0.4-3.46,0.573-5.193c0.015-0.156,0.032-0.312,0.047-0.467
	C512.179,266.776,512.385,252.18,511.325,237.582z M437.033,98.969c25.889,29.76,43.742,64.912,52.463,102.789l-67.627,67.626
	c-1.253,1.253-2.325,2.628-3.215,4.092l-62.811-9.948c-0.393-1.666-0.988-3.306-1.793-4.884L311.483,175.1
	c-0.804-1.579-1.782-3.024-2.899-4.322l28.874-56.672c0.588,0.049,1.181,0.081,1.777,0.081c1.131,0,2.273-0.088,3.418-0.27
	L437.033,98.969z M338.515,272.206l-66.301,66.301c-1.626,1.626-4.093,2.018-6.143,0.973l-83.545-42.568
	c-2.049-1.043-3.183-3.27-2.823-5.541l14.668-92.609c0.36-2.271,2.127-4.038,4.398-4.398l92.609-14.668
	c2.27-0.363,4.496,0.775,5.541,2.822l42.567,83.544C340.531,268.112,340.14,270.58,338.515,272.206z M418.442,79.827
	c0.725,0.67,1.453,1.337,2.171,2.017c0.476,0.45,0.948,0.907,1.421,1.361c0.47,0.452,0.935,0.911,1.401,1.368l-83.337,13.199
	c-2.275,0.361-4.498-0.775-5.541-2.822l-38.314-75.195C341.758,27.517,384.404,48.46,418.442,79.827z M147.658,129.666
	l14.969-94.509c29.152-12.33,60.758-18.811,93.365-18.811c6.925,0,13.801,0.309,20.621,0.887l43.38,85.138
	c0.804,1.578,1.788,3.013,2.904,4.31l-28.877,56.677c-1.706-0.141-3.45-0.082-5.2,0.196l-92.609,14.667
	c-1.75,0.278-3.427,0.76-5.006,1.421l-44.97-44.97C146.898,133.092,147.381,131.416,147.658,129.666z M65.098,111.076
	c0.24-0.314,0.477-0.629,0.718-0.943c0.676-0.878,1.359-1.751,2.048-2.621c0.464-0.585,0.933-1.168,1.402-1.75
	c0.578-0.716,1.154-1.433,1.74-2.143c1.041-1.259,2.092-2.512,3.16-3.752c0.327-0.379,0.661-0.753,0.991-1.13
	c0.868-0.996,1.743-1.989,2.629-2.972c0.405-0.45,0.815-0.897,1.224-1.344c0.873-0.953,1.753-1.901,2.644-2.844
	c0.363-0.385,0.724-0.77,1.09-1.152c1.251-1.308,2.513-2.607,3.796-3.89c1.285-1.285,2.585-2.548,3.892-3.8
	c0.38-0.363,0.763-0.722,1.145-1.083c0.946-0.892,1.897-1.777,2.854-2.652c0.444-0.405,0.886-0.811,1.332-1.213
	c0.995-0.897,1.998-1.782,3.006-2.661c0.366-0.318,0.727-0.643,1.094-0.959c1.247-1.074,2.505-2.13,3.77-3.176
	c0.695-0.574,1.397-1.139,2.099-1.704c0.6-0.485,1.202-0.968,1.806-1.447c0.855-0.677,1.713-1.349,2.577-2.013
	c0.336-0.258,0.673-0.512,1.009-0.769c10.593-8.058,21.813-15.202,33.605-21.38l-13.215,83.428c-0.36,2.271-2.127,4.037-4.398,4.398
	l-83.43,13.213C49.871,132.914,57.026,121.68,65.098,111.076z M16.349,255.989c0-32.608,6.483-64.216,18.813-93.369l94.512-14.97
	c1.75-0.277,3.426-0.76,5.005-1.421l44.97,44.97c-0.661,1.579-1.144,3.256-1.421,5.006l-14.668,92.609
	c-0.277,1.75-0.336,3.493-0.195,5.199l-56.666,28.871c-1.298-1.117-2.743-2.094-4.322-2.899l-85.143-43.382
	C16.658,269.784,16.349,262.911,16.349,255.989z M97.78,340.09l-13.2,83.346c-0.457-0.467-0.916-0.933-1.37-1.404
	c-0.454-0.473-0.911-0.944-1.361-1.42c-0.684-0.722-1.356-1.454-2.03-2.184c-31.364-34.041-52.304-76.683-60.064-122.197
	l75.201,38.316C97.006,335.592,98.14,337.82,97.78,340.09z M98.976,437.033l14.949-94.386c0.277-1.75,0.337-3.494,0.195-5.2
	l56.666-28.871c1.298,1.117,2.743,2.094,4.322,2.899l83.544,42.567c1.579,0.804,3.219,1.399,4.885,1.793l9.947,62.813
	c-1.463,0.889-2.839,1.961-4.092,3.215l-67.631,67.632C163.885,480.772,128.735,462.921,98.976,437.033z M295.399,492.413
	c-0.985,0.162-1.971,0.325-2.96,0.474c-0.578,0.088-1.156,0.173-1.734,0.257c-11.398,1.644-22.99,2.489-34.713,2.489
	c-5.73,0-11.426-0.208-17.086-0.605c-1.042-0.075-2.083-0.159-3.126-0.247c-0.451-0.037-0.902-0.076-1.352-0.115
	c-4.393-0.399-8.784-0.914-13.169-1.556l59.689-59.691c1.626-1.627,4.094-2.018,6.143-0.972l75.263,38.349
	C341.104,481.333,318.542,488.571,295.399,492.413z M425.446,425.442c-13.928,13.928-29.273,25.924-45.705,35.867l-85.228-43.427
	c-1.579-0.804-3.219-1.399-4.885-1.793l-9.951-62.838c1.461-0.888,2.845-1.937,4.096-3.188l66.301-66.301
	c1.253-1.253,2.325-2.628,3.215-4.092l62.811,9.948c0.393,1.666,0.988,3.306,1.793,4.884l43.426,85.228
	C451.372,396.165,439.376,411.512,425.446,425.442z M493.144,290.723c-0.082,0.562-0.165,1.126-0.251,1.688
	c-0.153,1.008-0.318,2.014-0.484,3.018c-3.843,23.13-11.078,45.677-21.608,66.916l-38.347-75.262
	c-1.044-2.048-0.653-4.517,0.973-6.143l59.685-59.684c0.641,4.379,1.156,8.764,1.554,13.151c0.041,0.469,0.082,0.938,0.121,1.408
	c0.087,1.023,0.17,2.046,0.243,3.07c0.397,5.666,0.606,11.37,0.606,17.105C495.636,267.718,494.791,279.318,493.144,290.723z"/>
<path style="opacity:0.15;enable-background:new    ;" d="M281.451,478.346c-136.865,0-247.816-110.951-247.816-247.816
	c0-61.953,22.735-118.596,60.316-162.042C41.416,113.929,8.176,181.077,8.176,255.989c0,136.865,110.951,247.816,247.816,247.816
	c74.912,0,142.06-33.241,187.5-85.774C400.046,455.611,343.404,478.346,281.451,478.346z"/>
<g>
</g>
<g>
</g>
<g>
</g>
<g>
</g>
<g>
</g>
<g>
</g>
<g>
</g>
<g>
</g>
<g>
</g>
<g>
</g>
<g>
</g>
<g>
</g>
<g>
</g>
<g>
</g>
<g>
</g>
</svg>
