<svg width="512" height="512" xmlns="http://www.w3.org/2000/svg" version="1.1" xml:space="preserve">
 <g>
  <title>Layer 1</title>
  <path d="m489.726,179.741c-10.589,-32.479 -27.755,-61.982 -49.931,-86.94l-89.437,0l-44.813,-77.618c-16.003,-3.275 -32.573,-4.996 -49.545,-4.996s-33.542,1.721 -49.546,4.996l-44.813,77.618l-89.437,0c-22.176,24.958 -39.342,54.461 -49.931,86.94l44.022,76.247l-44.021,76.247c10.592,32.489 27.764,61.998 49.949,86.96l89.419,0l44.8,77.596c16.008,3.277 32.582,4.999 49.559,4.999c16.977,0 33.551,-1.722 49.559,-4.999l44.8,-77.596l89.419,0c22.185,-24.963 39.358,-54.472 49.949,-86.96l-44.023,-76.247l44.021,-76.247z" fill="#FFE97C" id="svg_1"/>
  <g id="svg_2">
   <polygon points="210.958,334.002 165.918,255.989 210.958,177.975 301.042,177.975 346.082,255.989    301.042,334.002  " fill="#FF9ECA" id="svg_3"/>
   <path d="m439.795,92.801c-34.574,-38.912 -81.305,-66.782 -134.25,-77.618l44.813,77.618l89.437,0z" fill="#FF9ECA" id="svg_4"/>
   <path d="m489.726,179.741l-44.021,76.247l44.021,76.247c7.827,-24.006 12.075,-49.628 12.075,-76.247s-4.248,-52.24 -12.075,-76.247z" fill="#FF9ECA" id="svg_5"/>
   <path d="m305.559,496.791c52.93,-10.836 99.649,-38.697 134.218,-77.596l-89.419,0l-44.799,77.596z" fill="#FF9ECA" id="svg_6"/>
   <path d="m206.454,15.183c-52.945,10.836 -99.676,38.706 -134.25,77.618l89.437,0l44.813,-77.618z" fill="#FF9ECA" id="svg_7"/>
   <path d="m22.274,179.741c-7.827,24.007 -12.075,49.629 -12.075,76.247s4.248,52.241 12.075,76.247l44.021,-76.247l-44.021,-76.247z" fill="#FF9ECA" id="svg_8"/>
   <path d="m72.223,419.196c34.57,38.899 81.289,66.759 134.218,77.596l-44.8,-77.596l-89.418,0z" fill="#FF9ECA" id="svg_9"/>
  </g>
  <g id="svg_10">
   <path d="m499.423,176.581c-10.943,-33.567 -28.44,-64.033 -52.004,-90.554c-36.568,-41.158 -86.227,-69.866 -139.829,-80.836c-33.735,-6.905 -69.447,-6.905 -103.18,0c-53.601,10.969 -103.259,39.678 -139.83,80.836c-23.564,26.52 -41.061,56.987 -52.004,90.554c-8.345,25.597 -12.576,52.313 -12.576,79.408s4.231,53.811 12.577,79.408c10.947,33.576 28.45,64.05 52.023,90.574c36.564,41.142 86.21,69.842 139.795,80.811c16.873,3.454 34.234,5.206 51.605,5.206s34.732,-1.751 51.605,-5.206c53.586,-10.97 103.232,-39.67 139.795,-80.811c23.573,-26.524 41.075,-56.998 52.023,-90.574c8.346,-25.597 12.577,-52.314 12.577,-79.408s-4.231,-53.811 -12.577,-79.408zm-64.283,232.416l-78.9,0l-43.417,-75.001l39.149,-67.808l93.71937,0c10.199,-15.832 4.15073,-21.13864 -1.48127,-21.13864l-92.2381,0.74064l-39.148,-67.807l43.416,-74.983l78.917,0c19.205,22.449 33.795,47.853 43.435,75.628l-41.719,72.26c-1.822,3.156 -1.822,7.044 0,10.199l41.719,72.26c-9.644,27.785 -24.24,53.197 -43.452,75.65zm-279.379,0l-78.901,0c-19.212,-22.453 -33.808,-47.864 -43.452,-75.648l38.774,-67.161l87.846,0l39.149,67.808l-43.416,75.001zm-130.055,-103.105c-3.528,-16.332 -5.308,-33.036 -5.308,-49.904s1.78,-33.572 5.308,-49.904l28.812,49.904l-28.812,49.904zm51.138,-202.892l78.917,0l43.416,74.981l-39.148,67.807l-87.845,0l-38.774,-67.159c9.639,-27.776 24.229,-53.179 43.434,-75.629zm140.002,220.803l-39.153,-67.814l39.153,-67.814l78.306,0l39.153,67.814l-39.153,67.814l-78.306,0zm240.636,-67.814l28.812,-49.904c3.528,16.332 5.308,33.037 5.308,49.904s-1.78,33.572 -5.308,49.904l-28.812,-49.904zm-42.018,-173.387l-59.217,0l-29.703,-51.448c32.862,10.365 63.408,28.038 88.92,51.448zm-116.427,-58.294l39.54,68.487l-43.416,74.981l-78.323,0l-43.416,-74.981l39.541,-68.487c28.23,-5.206 57.839,-5.206 86.074,0zm-113.58,6.846l-29.704,51.448l-59.216,0c25.512,-23.41 56.057,-41.083 88.92,-51.448zm-29.704,398.241l29.689,51.422c-32.847,-10.361 -63.38,-28.025 -88.883,-51.422l59.194,0zm57.198,58.273l-39.529,-68.465l43.416,-75.001l78.323,0l43.416,75.001l-39.529,68.465c-28.238,5.207 -57.858,5.207 -86.097,0zm113.607,-6.85l29.689,-51.422l59.194,0c-25.503,23.396 -56.036,41.06 -88.883,51.422z" fill="#15202b" id="svg_11"/>
  </g>
  <g id="svg_13"/>
  <g id="svg_14"/>
  <g id="svg_15"/>
  <g id="svg_16"/>
  <g id="svg_17"/>
  <g id="svg_18"/>
  <g id="svg_19"/>
  <g id="svg_20"/>
  <g id="svg_21"/>
  <g id="svg_22"/>
  <g id="svg_23"/>
  <g id="svg_24"/>
  <g id="svg_25"/>
  <g id="svg_26"/>
  <g id="svg_27"/>
 </g>

</svg>